<?xml version="1.0" encoding="UTF-8" standalone="no"?>
<!DOCTYPE svg PUBLIC "-//W3C//DTD SVG 1.1//EN" "http://www.w3.org/Graphics/SVG/1.1/DTD/svg11.dtd">
<svg width="100%" height="100%" viewBox="0 0 212 26" version="1.1" xmlns="http://www.w3.org/2000/svg" xmlns:xlink="http://www.w3.org/1999/xlink" xml:space="preserve" xmlns:serif="http://www.serif.com/" style="fill-rule:evenodd;clip-rule:evenodd;stroke-linejoin:round;stroke-miterlimit:2;">
    <g transform="matrix(1,0,0,1,-150.485325,-243.148486)">
        <g transform="matrix(1,0,0,1,108.59089,22.851514)">
            <g transform="matrix(1,0,0,1,-13,-0)">
                <path d="M63.885,223.524C57.367,223.524 54.894,225.868 54.894,232L54.894,237.523C54.894,243.656 57.367,246 63.885,246L73.775,246C80.293,246 82.765,243.688 82.765,237.523L82.765,232C82.765,225.836 80.293,223.524 73.775,223.524L63.885,223.524ZM59.775,232.354C59.775,228.982 60.706,228.051 64.046,228.051L73.582,228.051C76.921,228.051 77.852,228.982 77.852,232.354L77.852,237.17C77.852,240.541 76.921,241.473 73.582,241.473L64.046,241.473C60.706,241.473 59.775,240.541 59.775,237.17L59.775,232.354Z" style="fill:white;fill-rule:nonzero;"/>
            </g>
            <g transform="matrix(1,0,0,1,-13,-0)">
                <path d="M87.774,223.524C87.132,223.524 86.811,223.845 86.811,224.487L86.811,245.294C86.811,245.775 87.036,246 87.517,246L90.985,246C91.467,246 91.691,245.775 91.691,245.294L91.691,239.225L104.985,239.225C109.897,239.225 111.888,236.849 111.888,232.514L111.888,230.106C111.888,225.803 109.897,223.524 104.985,223.524L87.774,223.524ZM91.691,234.794L91.691,228.404C91.691,228.147 91.82,228.019 92.109,228.019L103.989,228.019C106.173,228.019 106.975,228.886 106.975,230.812L106.975,232.033C106.975,233.927 106.173,234.794 103.989,234.794L91.691,234.794Z" style="fill:white;fill-rule:nonzero;"/>
            </g>
            <g transform="matrix(1,0,0,1,-13,-0)">
                <path d="M123.833,223.524C117.314,223.524 114.842,225.868 114.842,232L114.842,237.523C114.842,243.656 117.314,246 123.833,246L137.961,246C138.41,246 138.667,245.775 138.667,245.294L138.667,242.179C138.667,241.729 138.41,241.473 137.961,241.473L123.865,241.473C120.557,241.473 119.691,240.541 119.691,237.17L119.691,236.785L137.768,236.785C138.217,236.785 138.474,236.56 138.474,236.078L138.474,233.221C138.474,232.739 138.217,232.514 137.768,232.514L119.691,232.514L119.691,232.354C119.691,228.982 120.557,228.051 123.865,228.051L137.961,228.051C138.41,228.051 138.667,227.794 138.667,227.345L138.667,224.23C138.667,223.748 138.41,223.524 137.961,223.524L123.833,223.524Z" style="fill:white;fill-rule:nonzero;"/>
            </g>
            <g transform="matrix(1,0,0,1,-13,-0)">
                <path d="M145.249,223.524C143.226,223.524 142.392,224.326 142.392,226.863L142.392,245.294C142.392,245.775 142.616,246 143.098,246L146.534,246C146.983,246 147.24,245.775 147.24,245.294L147.24,228.533C147.24,228.308 147.304,228.212 147.497,228.212L147.786,228.212C147.979,228.212 148.075,228.276 148.203,228.436L160.052,244.106C161.047,245.518 161.432,246 163.744,246L166.602,246C168.625,246 169.492,245.197 169.492,242.661L169.492,224.23C169.492,223.748 169.267,223.524 168.785,223.524L165.35,223.524C164.868,223.524 164.643,223.748 164.643,224.23L164.643,240.991C164.643,241.216 164.547,241.312 164.386,241.312L164.097,241.312C163.905,241.312 163.776,241.248 163.68,241.087L151.864,225.418C150.836,224.005 150.451,223.524 148.139,223.524L145.249,223.524Z" style="fill:white;fill-rule:nonzero;"/>
            </g>
            <g transform="matrix(1,0,0,1,-12,-0)">
                <path d="M179.06,223.524C175.368,223.524 173.409,225.45 173.409,228.757L173.409,231.134C173.409,234.73 175.4,236.785 178.996,236.785L191.037,236.785C192.225,236.785 192.707,237.266 192.707,238.422L192.707,239.739C192.707,240.927 192.129,241.473 191.005,241.473L174.148,241.473C173.666,241.473 173.441,241.729 173.441,242.179L173.441,245.294C173.441,245.775 173.666,246 174.148,246L191.936,246C195.628,246 197.619,244.073 197.619,240.766L197.619,238.165C197.619,234.569 195.596,232.514 192,232.514L179.991,232.514C178.803,232.514 178.29,232.033 178.29,230.877L178.29,229.785C178.29,228.597 178.835,228.051 179.991,228.051L196.078,228.051C196.528,228.051 196.784,227.794 196.784,227.345L196.784,224.23C196.784,223.748 196.528,223.524 196.078,223.524L179.06,223.524Z" style="fill:white;fill-rule:nonzero;"/>
            </g>
            <g transform="matrix(1,0,0,1,-10,-0)">
                <path d="M202.018,223.524C201.537,223.524 201.312,223.748 201.312,224.23L201.312,245.294C201.312,245.775 201.537,246 202.018,246L205.486,246C205.968,246 206.192,245.775 206.192,245.294L206.192,224.23C206.192,223.748 205.968,223.524 205.486,223.524L202.018,223.524Z" style="fill:white;fill-rule:nonzero;"/>
            </g>
            <g transform="matrix(1,0,0,1,-9,-0)">
                <path d="M211.458,223.524C210.816,223.524 210.495,223.845 210.495,224.487L210.495,245.294C210.495,245.775 210.72,246 211.201,246L214.669,246C215.151,246 215.376,245.775 215.376,245.294L215.376,239.064L225.554,239.064L230.659,245.583C230.884,245.872 231.045,246 231.559,246L235.861,246C236.375,246 236.535,245.486 236.279,245.165L230.916,238.519C234.095,237.876 235.572,235.693 235.572,231.968L235.572,230.106C235.572,225.675 233.453,223.524 228.669,223.524L211.458,223.524ZM215.376,234.826L215.376,228.372C215.376,228.115 215.504,228.019 215.793,228.019L227.673,228.019C229.825,228.019 230.659,228.822 230.659,230.78L230.659,232.129C230.659,234.055 229.857,234.826 227.673,234.826L215.376,234.826Z" style="fill:white;fill-rule:nonzero;"/>
            </g>
            <g transform="matrix(1,0,0,1,-7,-0)">
                <path d="M240.26,223.524C239.778,223.524 239.554,223.748 239.554,224.23L239.554,245.294C239.554,245.775 239.778,246 240.26,246L243.728,246C244.209,246 244.434,245.775 244.434,245.294L244.434,224.23C244.434,223.748 244.209,223.524 243.728,223.524L240.26,223.524Z" style="fill:white;fill-rule:nonzero;"/>
            </g>
            <g transform="matrix(0.287118,0,0,0.287118,171.117056,156.119323)">
                <path d="M261.067,223.524C259.718,223.524 258.723,224.005 257.695,225.964L247.164,245.261C246.939,245.711 247.035,246 247.549,246L251.755,246C252.173,246 252.333,245.904 252.494,245.615L254.581,241.697L269.961,241.697L272.08,245.615C272.209,245.904 272.401,246 272.819,246L276.897,246C277.41,246 277.507,245.711 277.282,245.261L266.654,225.964C265.594,224.005 264.631,223.524 262.961,223.524L261.067,223.524ZM256.828,237.523L261.773,228.308C261.869,228.147 261.966,228.083 262.126,228.083L262.319,228.083C262.48,228.083 262.608,228.147 262.704,228.308L267.681,237.523L256.828,237.523Z" style="fill:white;fill-rule:nonzero;"/>
            </g>
            <g transform="matrix(0.287118,0,0,0.287118,171.117056,156.119323)">
                <path d="M280.75,223.524C280.268,223.524 280.043,223.748 280.043,224.23L280.043,245.294C280.043,245.775 280.268,246 280.75,246L284.217,246C284.699,246 284.924,245.775 284.924,245.294L284.924,224.23C284.924,223.748 284.699,223.524 284.217,223.524L280.75,223.524Z" style="fill:white;fill-rule:nonzero;"/>
            </g>
        </g>
    </g>
</svg>
